HIERARCHY
ROOT Hips
{
	OFFSET 0.000000 0.000000 0.000000 
	CHANNELS 6 Xposition Yposition Zposition Zrotation Yrotation Xrotation
	JOINT LeftUpLeg
	{
		OFFSET 1.363060 -1.794630 0.839290 
		CHANNELS 3 Zrotation Yrotation Xrotation
		JOINT LeftLeg
		{
			OFFSET 2.448110 -6.726130 0.000000 
			CHANNELS 3 Zrotation Yrotation Xrotation
			JOINT LeftFoot
			{
				OFFSET 2.562200 -7.039590 0.000000 
				CHANNELS 3 Zrotation Yrotation Xrotation
				JOINT LeftToeBase
				{
					OFFSET 0.157640 -0.433110 2.322550 
					CHANNELS 3 Zrotation Yrotation Xrotation
					End Site
					{
						OFFSET 0.000000 0.000000 0.000000 
					}
				}
			}
		}
	}
	JOINT RightUpLeg
	{
		OFFSET -1.305520 -1.794630 0.839290 
		CHANNELS 3 Zrotation Yrotation Xrotation
		JOINT RightLeg
		{
			OFFSET -2.542530 -6.985550 0.000000 
			CHANNELS 3 Zrotation Yrotation Xrotation
			JOINT RightFoot
			{
				OFFSET -2.568260 -7.056230 0.000000 
				CHANNELS 3 Zrotation Yrotation Xrotation
				JOINT RightToeBase
				{
					OFFSET -0.164730 -0.452590 2.363150 
					CHANNELS 3 Zrotation Yrotation Xrotation
					End Site
					{
						OFFSET 0.000000 0.000000 0.000000 
					}
				}
			}
		}
	}
	JOINT Spine
	{
		OFFSET 0.028270 2.035590 -0.193380 
		CHANNELS 3 Zrotation Yrotation Xrotation
		JOINT Spine1
		{
			OFFSET 0.056720 2.048850 -0.042750 
			CHANNELS 3 Zrotation Yrotation Xrotation
			JOINT Neck1
			{
				OFFSET -0.054170 1.746240 0.172020 
				CHANNELS 3 Zrotation Yrotation Xrotation
				JOINT Head
				{
					OFFSET 0.104070 1.761360 -0.123970 
					CHANNELS 3 Zrotation Yrotation Xrotation
					End Site
					{
						OFFSET 0.000000 0.000000 0.000000 
					}
				}
			}
			JOINT LeftArm
			{
				OFFSET 3.362410 1.200890 -0.311210 
				CHANNELS 3 Zrotation Yrotation Xrotation
				JOINT LeftForeArm
				{
					OFFSET 4.983000 -0.000000 -0.000000 
					CHANNELS 3 Zrotation Yrotation Xrotation
					JOINT LeftHand
					{
						OFFSET 3.483560 -0.000000 -0.000000 
						CHANNELS 3 Zrotation Yrotation Xrotation
						JOINT LeftHandIndex1
						{
							OFFSET 0.715260 -0.000000 -0.000000 
							CHANNELS 3 Zrotation Yrotation Xrotation
							End Site
							{
								OFFSET 0.000000 0.000000 0.000000 
							}
						}
					}
				}
			}
			JOINT RightArm
			{
				OFFSET -3.136600 1.374050 -0.404650 
				CHANNELS 3 Zrotation Yrotation Xrotation
				JOINT RightForeArm
				{
					OFFSET -5.241900 -0.000000 -0.000000 
					CHANNELS 3 Zrotation Yrotation Xrotation
					JOINT RightHand
					{
						OFFSET -3.444170 -0.000000 -0.000000 
						CHANNELS 3 Zrotation Yrotation Xrotation
						JOINT RightHandIndex1
						{
							OFFSET -0.622530 -0.000000 -0.000000 
							CHANNELS 3 Zrotation Yrotation Xrotation
							End Site
							{
								OFFSET 0.000000 0.000000 0.000000 
							}
						}
					}
				}
			}
		}
	}
}
MOTION
Frames: 15
Frame Time: 0.041667
10.061016 18.034202 41.676486 179.968923 4.740325 -160.646924 -25.179966 -20.544335 -19.424747 2.252617 7.338644 20.449272 2.905900 4.486359 -31.304721 11.097300 -17.982400 -63.097100 28.866877 21.122412 -23.771693 -2.366133 -7.046425 20.560803 -1.484494 0.187447 -22.792243 -2.186200 9.243600 -26.560300 0.504469 3.817727 -3.000419 1.699662 1.951221 1.427373 8.913505 -5.721468 34.215130 2.600800 -3.002600 11.967000 -87.368791 -6.677820 24.714973 11.115369 -20.003062 -2.820748 0.843507 0.365029 25.067884 -7.125000 0.000000 0.000000 86.171299 -7.355215 0.183476 -17.124886 35.310722 -6.895893 -0.797164 -3.591932 8.813159 7.125000 0.000000 0.000000 
10.072895 18.033473 41.659398 179.867999 4.844362 -160.462847 -25.265705 -20.436322 -19.470649 2.235925 7.293776 20.310428 2.911773 4.461700 -31.348710 11.112200 -17.989600 -63.145400 28.738041 21.267815 -23.897583 -2.354941 -7.031351 20.476083 -1.480697 0.198420 -22.794826 -2.146600 9.165100 -26.313000 0.527730 3.778573 -2.887162 1.755708 1.919686 1.613690 8.681574 -5.566951 34.388319 2.504000 -2.920800 12.067600 -87.430493 -6.871459 24.781635 11.420014 -20.363776 -2.849948 0.837499 0.404948 25.385254 -7.125000 0.000000 0.000000 86.193631 -7.271409 -0.559487 -16.466680 34.618206 -6.603980 -0.690395 -3.654336 9.444501 7.125000 0.000000 0.000000 
10.082273 18.038683 41.634911 179.883681 5.043498 -160.518078 -25.338720 -20.259825 -19.118985 2.212396 7.201631 20.069508 2.938373 4.513930 -31.480400 11.071700 -17.970000 -63.014100 28.856982 21.336071 -23.668910 -2.348539 -6.987636 20.387094 -1.475738 0.267583 -22.790727 -2.094500 9.060200 -25.983900 0.551844 3.842330 -2.750818 1.764873 1.947412 1.741938 8.328200 -5.517933 34.763145 2.348600 -2.906000 12.258200 -87.518301 -6.926933 24.315802 10.755087 -19.545278 -2.727126 0.857071 0.312502 27.529297 -7.125000 0.000000 0.000000 86.230189 -7.213470 -1.444623 -15.678225 33.795354 -6.291891 -0.659603 -3.697563 10.373081 7.125000 0.000000 0.000000 
10.094985 18.037745 41.619073 -179.991458 5.012229 -160.114531 -24.963256 -20.508283 -19.542367 2.210349 7.243905 20.125462 2.951886 4.596798 -31.587045 11.054600 -17.961700 -62.958600 28.859565 21.661217 -24.116990 -2.327530 -7.063000 20.480916 -1.485651 0.146766 -22.845147 -2.058100 8.986100 -25.752000 0.625405 3.780610 -2.735917 1.821892 1.916095 1.836423 8.215875 -5.478818 35.066788 2.308700 -2.896900 12.408500 -87.648305 -6.854814 23.819235 10.228656 -18.891263 -2.623099 0.862641 0.258022 29.372972 -7.125000 0.000000 0.000000 86.187178 -7.222100 -2.182820 -14.781983 32.870205 -5.966878 -0.709223 -3.716766 11.284882 7.125000 0.000000 0.000000 
10.108844 18.034931 41.605944 -179.893164 4.899491 -159.669122 -24.555842 -20.775243 -20.106342 2.213375 7.315838 20.252046 2.957263 4.749254 -31.634761 11.126300 -17.996300 -63.191100 28.756299 21.992190 -24.774758 -2.324647 -7.220760 20.788427 -1.490519 0.056789 -22.928342 -2.067600 9.005500 -25.812500 0.692961 3.679547 -2.748622 1.856684 1.865704 1.903356 8.119011 -5.473336 35.410183 2.262100 -2.903600 12.559500 -87.769509 -6.687039 23.033722 9.821277 -18.371603 -2.523535 0.864382 0.241822 31.260710 -7.125000 0.000000 0.000000 86.194142 -7.241842 -2.895074 -13.955518 32.006806 -5.678176 -0.779649 -3.728388 11.878603 7.125000 0.000000 0.000000 
10.118534 18.039829 41.576768 179.988366 5.011154 -159.729020 -24.779917 -20.585213 -19.768662 2.189315 7.218678 19.999823 2.967465 4.727917 -31.676991 11.133400 -17.999800 -63.214200 28.661473 21.992458 -24.778135 -2.359259 -7.301772 21.054246 -1.471920 0.255785 -22.985153 -2.062900 8.995800 -25.782200 0.708011 3.671162 -2.659810 1.904979 1.855974 1.994330 7.988293 -5.435408 35.625492 2.200400 -2.891300 12.644500 -87.928968 -6.493394 22.361566 9.637299 -18.138916 -2.476281 0.865422 0.237981 32.443453 -7.125000 0.000000 0.000000 86.292906 -7.211567 -3.767685 -13.241541 31.243615 -5.454002 -0.896304 -3.733020 12.641195 7.125000 0.000000 0.000000 
10.126870 18.041809 41.548634 179.805780 4.929622 -159.581079 -24.964346 -20.606929 -19.746586 2.171354 7.162955 19.839817 2.955710 4.631224 -31.619028 11.116600 -17.991700 -63.159700 28.447816 21.946716 -24.939171 -2.376123 -7.343851 21.169522 -1.473641 0.304458 -23.073585 -2.044700 8.958600 -25.665800 0.884581 3.218624 -2.622332 2.406266 1.619538 2.171866 7.765845 -4.916937 35.722470 2.262500 -2.738700 12.669600 -88.586123 -6.356013 20.984708 9.605842 -18.096678 -2.479718 0.871417 0.207515 32.861572 -7.125000 0.000000 0.000000 85.740676 -7.075030 -3.982713 -12.513232 30.413699 -5.213826 -0.987924 -3.685765 13.795031 7.125000 0.000000 0.000000 
10.138749 18.044726 41.515291 179.822616 5.068228 -159.575801 -25.048767 -20.258107 -19.389976 2.144699 7.037169 19.513543 2.964741 4.628126 -31.631461 11.129100 -17.997700 -63.200200 28.558757 22.043708 -24.763670 -2.375325 -7.337953 21.175975 -1.473136 0.374134 -23.125506 -2.039700 8.948300 -25.633900 0.753967 3.577345 -2.585603 1.951017 1.799213 2.158688 7.874060 -5.441243 35.809541 2.125800 -2.885300 12.723800 -88.196271 -6.248026 21.723285 9.590840 -18.097129 -2.484392 0.869236 0.197202 32.674730 -7.125000 0.000000 0.000000 86.595545 -7.066949 -5.865251 -11.921679 29.762243 -5.056916 -1.122916 -3.733268 15.097688 7.125000 0.000000 0.000000 
10.151774 18.044101 41.488928 179.838017 5.215963 -159.482748 -24.969018 -20.140055 -19.275986 2.123108 6.964913 19.302860 2.987884 4.693095 -31.751196 11.130800 -17.998500 -63.205600 28.535553 22.316744 -24.806901 -2.369116 -7.363344 21.228863 -1.484325 0.366932 -23.236195 -1.910100 8.676200 -24.787500 0.906491 3.251477 -2.545642 2.348062 1.630297 2.263345 7.849024 -5.003144 35.953540 2.266800 -2.749500 12.831300 -88.775674 -6.178692 20.312500 9.468722 -17.938946 -2.455060 0.869399 0.215210 33.518711 -7.125000 0.000000 0.000000 86.055963 -6.854909 -5.973999 -11.175940 28.900530 -4.812066 -1.232267 -3.655975 16.254549 7.125000 0.000000 0.000000 
10.165111 18.043893 41.464963 179.850472 5.215110 -159.288859 -24.834864 -20.200090 -19.387181 2.116293 6.955351 19.257362 2.999824 4.700329 -31.834492 11.120200 -17.993400 -63.171100 28.479767 22.581987 -24.963604 -2.358390 -7.397818 21.277931 -1.500986 0.323859 -23.373859 -1.753200 8.331800 -23.726500 0.971738 3.104669 -2.651022 2.449542 1.570083 2.092999 7.797111 -4.879436 35.997757 2.272100 -2.734400 12.768000 -89.040348 -5.852203 19.583621 9.354716 -17.792620 -2.446133 0.872956 0.170845 33.962611 -7.125000 0.000000 0.000000 86.042776 -7.203219 -6.369911 -10.705274 28.371547 -4.678001 -1.342637 -3.625120 16.883790 7.125000 0.000000 0.000000 
10.177511 18.048790 41.427972 179.988897 5.395369 -159.324855 -24.770005 -19.923326 -19.037369 2.102456 6.869599 19.044719 3.022032 4.686769 -31.941431 11.099100 -17.983200 -63.103000 28.799480 22.707017 -24.653438 -2.352412 -7.367115 21.240571 -1.487149 0.486142 -23.379008 -1.739200 8.300300 -23.630100 1.017441 3.061601 -2.611813 2.465911 1.552240 2.124123 7.700143 -4.783588 36.192900 2.259500 -2.706600 12.896000 -89.183589 -5.825590 19.228518 9.343247 -17.778565 -2.423851 0.872850 0.214494 33.652889 -7.125000 0.000000 0.000000 86.034099 -7.224094 -6.717165 -10.318386 27.933064 -4.564935 -1.417333 -3.604991 17.394249 7.125000 0.000000 0.000000 
10.191682 18.051395 41.392128 -179.883394 5.563391 -159.306269 -24.689135 -19.687423 -18.744872 2.086730 6.786060 18.831588 3.044801 4.706686 -32.047448 11.069700 -17.969000 -63.007800 29.042476 22.895219 -24.456141 -2.345317 -7.357457 21.232437 -1.469505 0.601366 -23.326722 -1.788100 8.410100 -23.966800 0.936492 3.310819 -2.604506 2.089676 1.686699 2.057570 7.887652 -5.137406 36.185010 2.232900 -2.806600 12.919400 -88.887592 -5.825845 19.984656 9.410676 -17.874569 -2.451940 0.875767 0.173023 32.490525 -7.125000 0.000000 0.000000 86.601203 -7.329055 -7.679323 -10.037708 27.627707 -4.495734 -1.494501 -3.620073 18.155278 7.125000 0.000000 0.000000 
10.210958 18.046810 41.377957 179.929031 5.458808 -158.905348 -24.611298 -20.022887 -19.266503 2.092575 6.862059 18.989440 3.040432 4.624877 -32.093298 11.015900 -17.942900 -62.833300 28.562542 23.307029 -25.124732 -2.351062 -7.519361 21.558938 -1.503672 0.347650 -23.492999 -1.872700 8.595800 -24.538800 1.021991 2.995941 -2.739677 2.344828 1.533266 1.893172 7.987782 -4.931477 35.990040 2.349000 -2.753500 12.782900 -89.136394 -5.730092 19.797352 9.465615 -17.947625 -2.458600 0.880000 0.182802 31.570663 -7.125000 0.000000 0.000000 86.381233 -7.376212 -7.875942 -9.578268 27.068247 -4.343615 -1.524121 -3.572628 19.330518 7.125000 0.000000 0.000000 
10.230652 18.050770 41.343154 179.835395 5.627061 -159.079480 -24.809566 -19.789334 -18.762434 2.079810 6.772438 18.787869 3.058530 4.483553 -32.198546 10.948000 -17.909600 -62.612600 28.599972 23.420907 -24.875729 -2.378129 -7.582407 21.807223 -1.517559 0.376411 -23.620401 -1.939700 8.739300 -24.983100 1.062122 2.903293 -2.706137 2.475270 1.486109 1.894002 8.129880 -4.862486 35.834438 2.443700 -2.735400 12.691200 -89.230203 -5.621361 19.575952 9.321623 -17.771714 -2.415107 0.877245 0.218782 32.239054 -7.125000 0.000000 0.000000 86.321971 -7.293321 -8.407416 -9.118446 26.492831 -4.199207 -1.562500 -3.535408 20.871915 7.125000 0.000000 0.000000 
10.250450 18.052228 41.300537 179.853296 5.840109 -159.183454 -24.891841 -19.458857 -18.273423 2.064660 6.668304 18.543521 3.081080 4.369707 -32.317810 10.894500 -17.883100 -62.438400 28.758108 23.542212 -24.658540 -2.400150 -7.646655 22.042855 -1.516688 0.471439 -23.692452 -1.917300 8.691700 -24.835600 0.979618 3.099403 -2.629714 2.170295 1.578183 2.044144 8.257792 -5.143718 35.837563 2.408700 -2.813200 12.707500 -88.899324 -5.819954 20.109238 9.248444 -17.678389 -2.408301 0.880105 0.169963 32.435076 -7.125000 0.000000 0.000000 86.795807 -7.208147 -9.341379 -8.784042 26.106248 -4.116314 -1.652517 -3.519071 22.594017 7.125000 0.000000 0.000000 
